<svg xmlns="http://www.w3.org/2000/svg" xmlns:xlink="http://www.w3.org/1999/xlink" width="256" zoomAndPan="magnify" viewBox="0 0 192 191.999996" height="256" preserveAspectRatio="xMidYMid meet" version="1.0"><defs><g/><clipPath id="6e1d7f37e9"><path d="M 0 0 L 192 0 L 192 192 L 0 192 Z M 0 0 " clip-rule="nonzero"/></clipPath><clipPath id="464cece498"><path d="M 27.75 0 L 164.25 0 C 179.574219 0 192 12.425781 192 27.75 L 192 164.25 C 192 179.574219 179.574219 192 164.25 192 L 27.75 192 C 12.425781 192 0 179.574219 0 164.25 L 0 27.75 C 0 12.425781 12.425781 0 27.75 0 Z M 27.75 0 " clip-rule="nonzero"/></clipPath><clipPath id="3fbcee9ce4"><path d="M 0 0 L 192 0 L 192 192 L 0 192 Z M 0 0 " clip-rule="nonzero"/></clipPath><clipPath id="6da5ac4688"><path d="M 27.75 0 L 164.25 0 C 179.574219 0 192 12.425781 192 27.75 L 192 164.25 C 192 179.574219 179.574219 192 164.25 192 L 27.75 192 C 12.425781 192 0 179.574219 0 164.25 L 0 27.75 C 0 12.425781 12.425781 0 27.75 0 Z M 27.75 0 " clip-rule="nonzero"/></clipPath><clipPath id="1c0498a167"><rect x="0" width="192" y="0" height="192"/></clipPath><clipPath id="a709715305"><rect x="0" width="192" y="0" height="192"/></clipPath></defs><g transform="matrix(1, 0, 0, 1, 0, 0)"><g clip-path="url(#a709715305)"><g clip-path="url(#6e1d7f37e9)"><g clip-path="url(#464cece498)"><g transform="matrix(1, 0, 0, 1, 0, 0)"><g clip-path="url(#1c0498a167)"><g clip-path="url(#3fbcee9ce4)"><g clip-path="url(#6da5ac4688)"><rect x="-69.888" width="331.776" fill="#df5800" y="-69.887999" height="331.775993" fill-opacity="1"/></g></g></g></g></g></g><g fill="#ffffff" fill-opacity="1"><g transform="translate(29.200003, 150.568405)"><g><path d="M 13.421875 -113.171875 L 64.828125 -113.171875 C 77.117188 -113.171875 87.976562 -110.828125 97.40625 -106.140625 C 106.832031 -101.453125 114.160156 -94.847656 119.390625 -86.328125 C 124.617188 -77.816406 127.234375 -67.898438 127.234375 -56.578125 C 127.234375 -45.265625 124.617188 -35.347656 119.390625 -26.828125 C 114.160156 -18.316406 106.832031 -11.71875 97.40625 -7.03125 C 87.976562 -2.34375 77.117188 0 64.828125 0 L 13.421875 0 Z M 63.53125 -21.5 C 74.851562 -21.5 83.878906 -24.648438 90.609375 -30.953125 C 97.347656 -37.265625 100.71875 -45.804688 100.71875 -56.578125 C 100.71875 -67.359375 97.347656 -75.898438 90.609375 -82.203125 C 83.878906 -88.515625 74.851562 -91.671875 63.53125 -91.671875 L 39.609375 -91.671875 L 39.609375 -21.5 Z M 63.53125 -21.5 "/></g></g></g></g></g></svg>