<svg
  xmlns="http://www.w3.org/2000/svg"
  xmlns:xlink="http://www.w3.org/1999/xlink"
  width="500"
  zoomAndPan="magnify"
  viewBox="0 0 375 149.999998"
  height="200"
  preserveAspectRatio="xMidYMid meet"
  version="1.0"
>
  <defs>
    <g />
    <clipPath id="879f7da3d9">
      <path
        d="M 1 3.238281 L 110.164062 3.238281 L 110.164062 114.960938 L 1 114.960938 Z M 1 3.238281 "
        clip-rule="nonzero"
      />
    </clipPath>
    <clipPath id="687c183768">
      <path
        d="M 11.5 3.238281 L 99.664062 3.238281 C 105.460938 3.238281 110.164062 7.9375 110.164062 13.738281 L 110.164062 104.261719 C 110.164062 110.0625 105.460938 114.761719 99.664062 114.761719 L 11.5 114.761719 C 5.699219 114.761719 1 110.0625 1 104.261719 L 1 13.738281 C 1 7.9375 5.699219 3.238281 11.5 3.238281 Z M 11.5 3.238281 "
        clip-rule="nonzero"
      />
    </clipPath>
    <clipPath id="b632727c22">
      <path
        d="M 0 0.238281 L 109.164062 0.238281 L 109.164062 111.800781 L 0 111.800781 Z M 0 0.238281 "
        clip-rule="nonzero"
      />
    </clipPath>
    <clipPath id="bef945492d">
      <path
        d="M 10.5 0.238281 L 98.664062 0.238281 C 104.460938 0.238281 109.164062 4.9375 109.164062 10.738281 L 109.164062 101.261719 C 109.164062 107.0625 104.460938 111.761719 98.664062 111.761719 L 10.5 111.761719 C 4.699219 111.761719 0 107.0625 0 101.261719 L 0 10.738281 C 0 4.9375 4.699219 0.238281 10.5 0.238281 Z M 10.5 0.238281 "
        clip-rule="nonzero"
      />
    </clipPath>
    <clipPath id="2989aec18a">
      <rect x="0" width="110" y="0" height="112" />
    </clipPath>
    <clipPath id="dc726dd0ae">
      <rect x="0" width="347" y="0" height="116" />
    </clipPath>
  </defs>
  <g transform="matrix(1, 0, 0, 1, 14, 16)">
    <g clip-path="url(#dc726dd0ae)">
      <g fill="currentColor" fill-opacity="1">
        <g transform="translate(115.44648, 90.696121)">
          <g>
            <path d="M 57.65625 -50.515625 L 57.65625 0 L 43.765625 0 L 43.765625 -6.015625 C 41.816406 -3.816406 39.492188 -2.140625 36.796875 -0.984375 C 34.109375 0.171875 31.203125 0.75 28.078125 0.75 C 21.441406 0.75 16.179688 -1.15625 12.296875 -4.96875 C 8.421875 -8.789062 6.484375 -14.457031 6.484375 -21.96875 L 6.484375 -50.515625 L 21.125 -50.515625 L 21.125 -24.140625 C 21.125 -15.992188 24.535156 -11.921875 31.359375 -11.921875 C 34.867188 -11.921875 37.6875 -13.0625 39.8125 -15.34375 C 41.945312 -17.632812 43.015625 -21.035156 43.015625 -25.546875 L 43.015625 -50.515625 Z M 57.65625 -50.515625 " />
          </g>
        </g>
      </g>
      <g fill="currentColor" fill-opacity="1">
        <g transform="translate(179.959301, 90.696121)">
          <g>
            <path d="M 20.75 -43.859375 C 22.5 -46.296875 24.859375 -48.140625 27.828125 -49.390625 C 30.804688 -50.640625 34.238281 -51.265625 38.125 -51.265625 L 38.125 -37.75 C 36.5 -37.875 35.40625 -37.9375 34.84375 -37.9375 C 30.644531 -37.9375 27.351562 -36.757812 24.96875 -34.40625 C 22.59375 -32.0625 21.40625 -28.546875 21.40625 -23.859375 L 21.40625 0 L 6.765625 0 L 6.765625 -50.515625 L 20.75 -50.515625 Z M 20.75 -43.859375 " />
          </g>
        </g>
      </g>
      <g fill="currentColor" fill-opacity="1">
        <g transform="translate(219.587246, 90.696121)">
          <g>
            <path d="M 30.796875 0.75 C 25.472656 0.75 20.695312 -0.359375 16.46875 -2.578125 C 12.25 -4.804688 8.945312 -7.890625 6.5625 -11.828125 C 4.1875 -15.773438 3 -20.253906 3 -25.265625 C 3 -30.265625 4.1875 -34.738281 6.5625 -38.6875 C 8.945312 -42.632812 12.25 -45.71875 16.46875 -47.9375 C 20.695312 -50.15625 25.472656 -51.265625 30.796875 -51.265625 C 36.117188 -51.265625 40.875 -50.15625 45.0625 -47.9375 C 49.257812 -45.71875 52.546875 -42.632812 54.921875 -38.6875 C 57.304688 -34.738281 58.5 -30.265625 58.5 -25.265625 C 58.5 -20.253906 57.304688 -15.773438 54.921875 -11.828125 C 52.546875 -7.890625 49.257812 -4.804688 45.0625 -2.578125 C 40.875 -0.359375 36.117188 0.75 30.796875 0.75 Z M 30.796875 -11.265625 C 34.554688 -11.265625 37.640625 -12.53125 40.046875 -15.0625 C 42.460938 -17.601562 43.671875 -21.003906 43.671875 -25.265625 C 43.671875 -29.515625 42.460938 -32.90625 40.046875 -35.4375 C 37.640625 -37.976562 34.554688 -39.25 30.796875 -39.25 C 27.046875 -39.25 23.945312 -37.976562 21.5 -35.4375 C 19.0625 -32.90625 17.84375 -29.515625 17.84375 -25.265625 C 17.84375 -21.003906 19.0625 -17.601562 21.5 -15.0625 C 23.945312 -12.53125 27.046875 -11.265625 30.796875 -11.265625 Z M 30.796875 -11.265625 " />
          </g>
        </g>
      </g>
      <g fill="currentColor" fill-opacity="1">
        <g transform="translate(281.095104, 90.696121)">
          <g>
            <path d="M 37.46875 -51.265625 C 43.726562 -51.265625 48.78125 -49.382812 52.625 -45.625 C 56.476562 -41.875 58.40625 -36.304688 58.40625 -28.921875 L 58.40625 0 L 43.765625 0 L 43.765625 -26.671875 C 43.765625 -30.671875 42.882812 -33.65625 41.125 -35.625 C 39.375 -37.601562 36.84375 -38.59375 33.53125 -38.59375 C 29.832031 -38.59375 26.882812 -37.445312 24.6875 -35.15625 C 22.5 -32.875 21.40625 -29.484375 21.40625 -24.984375 L 21.40625 0 L 6.765625 0 L 6.765625 -50.515625 L 20.75 -50.515625 L 20.75 -44.609375 C 22.695312 -46.734375 25.109375 -48.375 27.984375 -49.53125 C 30.859375 -50.6875 34.019531 -51.265625 37.46875 -51.265625 Z M 37.46875 -51.265625 " />
          </g>
        </g>
      </g>
      <g clip-path="url(#879f7da3d9)">
        <g clip-path="url(#687c183768)">
          <g transform="matrix(1, 0, 0, 1, 1, 3)">
            <g clip-path="url(#2989aec18a)">
              <g clip-path="url(#b632727c22)">
                <g clip-path="url(#bef945492d)">
                  <path
                    fill="#df5800"
                    d="M 0 0.238281 L 109.164062 0.238281 L 109.164062 111.960938 L 0 111.960938 Z M 0 0.238281 "
                    fill-opacity="1"
                    fill-rule="nonzero"
                  />
                </g>
              </g>
            </g>
          </g>
        </g>
      </g>
      <g fill="#ffffff" fill-opacity="1">
        <g transform="translate(16.794042, 90.696121)">
          <g>
            <path d="M 7.796875 -65.734375 L 37.65625 -65.734375 C 44.789062 -65.734375 51.097656 -64.367188 56.578125 -61.640625 C 62.054688 -58.921875 66.3125 -55.085938 69.34375 -50.140625 C 72.382812 -45.203125 73.90625 -39.441406 73.90625 -32.859375 C 73.90625 -26.285156 72.382812 -20.523438 69.34375 -15.578125 C 66.3125 -10.640625 62.054688 -6.804688 56.578125 -4.078125 C 51.097656 -1.359375 44.789062 0 37.65625 0 L 7.796875 0 Z M 36.90625 -12.484375 C 43.476562 -12.484375 48.71875 -14.3125 52.625 -17.96875 C 56.539062 -21.632812 58.5 -26.597656 58.5 -32.859375 C 58.5 -39.117188 56.539062 -44.082031 52.625 -47.75 C 48.71875 -51.414062 43.476562 -53.25 36.90625 -53.25 L 23 -53.25 L 23 -12.484375 Z M 36.90625 -12.484375 " />
          </g>
        </g>
      </g>
    </g>
  </g>
</svg>
